<svg width="512" height="512" viewBox="0 0 512 512" fill="none" xmlns="http://www.w3.org/2000/svg">
<path d="M256 32C220.6 32 192 60.6 192 96V128H160C106.9 128 64 170.9 64 224V384C64 437.1 106.9 480 160 480H352C405.1 480 448 437.1 448 384V224C448 170.9 405.1 128 352 128H320V96C320 60.6 291.4 32 256 32ZM232 96C232 82.7 242.7 72 256 72C269.3 72 280 82.7 280 96V128H232V96ZM160 168H352C382.9 168 408 193.1 408 224V384C408 414.9 382.9 440 352 440H160C129.1 440 104 414.9 104 384V224C104 193.1 129.1 168 160 168ZM256 248C233.9 248 216 265.9 216 288V320C216 342.1 233.9 360 256 360C278.1 360 296 342.1 296 320V288C296 265.9 278.1 248 256 248ZM248 280V328C248 332.4 251.6 336 256 336C260.4 336 264 332.4 264 328V280C264 275.6 260.4 272 256 272C251.6 272 248 275.6 248 280Z" fill="#2ECC71"/>
<path d="M256 230C230 230 210 250 210 276V332C210 358 230 378 256 378C282 378 302 358 302 332V276C302 250 282 230 256 230ZM270 332C270 339.7 263.7 346 256 346C248.3 346 242 339.7 242 332V276C242 268.3 248.3 262 256 262C263.7 262 270 268.3 270 276V332Z" fill="#145A32"/>
<text x="50%" y="55%" dominant-baseline="middle" text-anchor="middle" font-family="Arial, sans-serif" font-weight="bold" font-size="120" fill="#145A32">$</text>
</svg>
